<?xml version="1.0" encoding="utf-8"?>
<!-- Generator: Adobe Illustrator 22.0.1, SVG Export Plug-In . SVG Version: 6.00 Build 0)  -->
<svg version="1.1" id="Layer_1" xmlns="http://www.w3.org/2000/svg" xmlns:xlink="http://www.w3.org/1999/xlink" x="0px" y="0px"
	 viewBox="0 0 260.7 76.3" style="enable-background:new 0 0 260.7 76.3;" xml:space="preserve">
<style type="text/css">
	.st0{fill:#8D99AD;}
	.st1{fill:#093853;}
	.st2{fill:#E75A7C;}
</style>
<g>
	<path class="st0" d="M99,40.6H87.2l-2.8,7.5h-1.9L92,22.7h2l9.5,25.4h-1.9L99,40.6z M98.4,39l-5.3-14.3L87.8,39H98.4z"/>
	<path class="st0" d="M129.1,48.1h-1.9l-6-10.8H113v10.8h-1.7V22.7H123c3.6,0,5.3,1.7,5.3,5.3v4c0,3.6-1.7,5.3-5.2,5.3L129.1,48.1z
		 M123,35.8c2.5,0,3.6-1.1,3.6-3.6V28c0-2.5-1.1-3.6-3.6-3.6h-9.9v11.4H123z"/>
	<path class="st0" d="M143.1,24.3H135v-1.6h18v1.6h-8.1v23.8h-1.7L143.1,24.3L143.1,24.3z"/>
	<path class="st0" d="M160.6,22.7h1.7v25.4h-1.7V22.7z"/>
	<path class="st0" d="M172.4,22.7h15.8v1.6h-14v10.3h11.9v1.6h-11.9v11.9h-1.7V22.7H172.4z"/>
	<path class="st0" d="M208,40.6h-11.7l-2.8,7.5h-1.9l9.5-25.4h2l9.5,25.4h-1.9L208,40.6z M207.4,39l-5.3-14.3L196.8,39H207.4z"/>
	<path class="st0" d="M219.2,42.8V28c0-3.6,1.7-5.3,5.3-5.3h6.7c3.6,0,5.3,1.7,5.3,5.3v2.1h-1.7V28c0-2.5-1.1-3.6-3.6-3.6h-6.5
		c-2.5,0-3.6,1.1-3.6,3.6v15c0,2.5,1.1,3.6,3.6,3.6h6.5c2.5,0,3.6-1.1,3.6-3.6v-2.1h1.7V43c0,3.5-1.7,5.3-5.3,5.3h-6.7
		C220.9,48.1,219.2,46.3,219.2,42.8z"/>
	<path class="st0" d="M250.8,24.3h-8.1v-1.6h18v1.6h-8.1v23.8h-1.7V24.3H250.8z"/>
</g>
<polygon class="st1" points="51.6,76.3 70.7,76.3 52.3,0 52.3,0 37.3,8.5 37.3,17.6 42.8,14.6 44.8,28.5 23.8,37.3 25.5,24.4 
	29.6,22.1 29.6,12.9 13.6,22 13.5,22.4 13.5,22.4 0,76.3 18.9,76.3 21.7,54.1 47.2,45.4 "/>
<g>
	<path class="st2" d="M83.1,61.6V57c0-1.1,0.5-1.5,1.5-1.5h2.7c1.1,0,1.5,0.5,1.5,1.5v1h-1.6v-0.9c0-0.2-0.1-0.2-0.2-0.2h-2.1
		c-0.2,0-0.2,0.1-0.2,0.2v4.4c0,0.2,0.1,0.2,0.2,0.2H87c0.2,0,0.2-0.1,0.2-0.2v-1.2h-1.5v-1.4h3.1v2.7c0,1.1-0.5,1.5-1.5,1.5h-2.7
		C83.6,63.1,83.1,62.6,83.1,61.6z"/>
	<path class="st2" d="M95.2,61.4h-2.7L92,63.1h-1.7l2.4-7.7H95l2.4,7.7h-1.7L95.2,61.4z M94.8,60l-0.9-3.3L93,60H94.8z"/>
	<path class="st2" d="M99.3,55.4h1.7l2.1,4.6l2.1-4.6h1.7v7.7h-1.6v-4.9l-1.7,3.9h-1.2l-1.7-3.9v4.9h-1.5L99.3,55.4L99.3,55.4z"/>
	<path class="st2" d="M109.5,55.4h5.2v1.5h-3.6v1.6h2.9v1.4h-2.9v1.8h3.6v1.5h-5.2V55.4z"/>
	<path class="st2" d="M120.2,61.6v-1h1.5v0.9c0,0.2,0.1,0.2,0.2,0.2h2.1c0.2,0,0.2-0.1,0.2-0.2v-0.9c0-0.2-0.1-0.3-0.4-0.4l-2.1-0.4
		c-1-0.2-1.6-0.6-1.6-1.6V57c0-1.1,0.5-1.5,1.5-1.5h2.4c1.1,0,1.5,0.5,1.5,1.5v0.9H124V57c0-0.2-0.1-0.2-0.2-0.2h-1.9
		c-0.2,0-0.2,0.1-0.2,0.2v0.8c0,0.2,0.1,0.3,0.4,0.4l2.1,0.4c1,0.2,1.6,0.6,1.6,1.6v1.3c0,1.1-0.5,1.5-1.5,1.5h-2.5
		C120.7,63.1,120.2,62.6,120.2,61.6z"/>
	<path class="st2" d="M128,61.6V57c0-1.1,0.5-1.5,1.5-1.5h2.8c1.1,0,1.5,0.5,1.5,1.5v4.6c0,1.1-0.5,1.5-1.5,1.5h-2.8
		C128.5,63.1,128,62.6,128,61.6z M132.1,61.7c0.2,0,0.2-0.1,0.2-0.2v-4.4c0-0.2-0.1-0.2-0.2-0.2h-2.3c-0.2,0-0.2,0.1-0.2,0.2v4.4
		c0,0.2,0.1,0.2,0.2,0.2H132.1z"/>
	<path class="st2" d="M136.3,55.4h1.6v6.3h3.3v1.5h-4.9L136.3,55.4L136.3,55.4z"/>
	<path class="st2" d="M143.1,61.6v-6.2h1.6v6.1c0,0.2,0.1,0.2,0.2,0.2h2.2c0.2,0,0.2-0.1,0.2-0.2v-6.1h1.6v6.2
		c0,1.1-0.5,1.5-1.5,1.5h-2.7C143.6,63.1,143.1,62.6,143.1,61.6z"/>
	<path class="st2" d="M152.9,56.8h-2.1v-1.4h5.8v1.4h-2.1v6.3h-1.6L152.9,56.8L152.9,56.8z"/>
	<path class="st2" d="M158.6,55.4h1.6v7.7h-1.6V55.4z"/>
	<path class="st2" d="M162.6,61.6V57c0-1.1,0.5-1.5,1.5-1.5h2.8c1.1,0,1.5,0.5,1.5,1.5v4.6c0,1.1-0.5,1.5-1.5,1.5h-2.8
		C163.1,63.1,162.6,62.6,162.6,61.6z M166.7,61.7c0.2,0,0.2-0.1,0.2-0.2v-4.4c0-0.2-0.1-0.2-0.2-0.2h-2.3c-0.2,0-0.2,0.1-0.2,0.2
		v4.4c0,0.2,0.1,0.2,0.2,0.2H166.7z"/>
	<path class="st2" d="M170.9,55.4h1.7l2.9,5v-5h1.5v7.7h-1.5l-3-5.2v5.2H171L170.9,55.4L170.9,55.4z"/>
	<path class="st2" d="M179.4,61.6v-1h1.5v0.9c0,0.2,0.1,0.2,0.2,0.2h2.1c0.2,0,0.2-0.1,0.2-0.2v-0.9c0-0.2-0.1-0.3-0.4-0.4l-2.1-0.4
		c-1-0.2-1.6-0.6-1.6-1.6V57c0-1.1,0.5-1.5,1.5-1.5h2.4c1.1,0,1.5,0.5,1.5,1.5v0.9h-1.5V57c0-0.2-0.1-0.2-0.2-0.2h-1.9
		c-0.2,0-0.2,0.1-0.2,0.2v0.8c0,0.2,0.1,0.3,0.4,0.4l2.1,0.4c1,0.2,1.6,0.6,1.6,1.6v1.3c0,1.1-0.5,1.5-1.5,1.5H181
		C179.9,63.1,179.4,62.6,179.4,61.6z"/>
</g>
</svg>
